<?xml version="1.0" encoding="utf-8"?>
<svg xmlns="http://www.w3.org/2000/svg" width="500" height="500" viewBox="0 0 50 50">
  <path d="M2 4 A 1.0001 1.0001 0 0 0 1 5L1 9.8320312 A 1.0001 1.0001 0 0 0 1 10.158203L1 39.832031 A 1.0001 1.0001 0 0 0 1 40.158203L1 45 A 1.0001 1.0001 0 0 0 2 46L48 46 A 1.0001 1.0001 0 0 0 49 45L49 40.167969 A 1.0001 1.0001 0 0 0 49 39.841797L49 10.167969 A 1.0001 1.0001 0 0 0 49 9.8417969L49 5 A 1.0001 1.0001 0 0 0 48 4L2 4 z M 3 6L6 6L6 9L3 9L3 6 z M 8 6L12 6L12 9L8 9L8 6 z M 14 6L18 6L18 9L14 9L14 6 z M 20 6L24 6L24 9L20 9L20 6 z M 26 6L30 6L30 9L26 9L26 6 z M 32 6L36 6L36 9L32 9L32 6 z M 38 6L42 6L42 9L38 9L38 6 z M 44 6L47 6L47 9L44 9L44 6 z M 3 11L47 11L47 39L3 39L3 11 z M 20.941406 18 A 1.0001 1.0001 0 0 0 20 19L20 31 A 1.0001 1.0001 0 0 0 21.513672 31.857422L31.513672 25.857422 A 1.0001 1.0001 0 0 0 31.513672 24.142578L21.513672 18.142578 A 1.0001 1.0001 0 0 0 21.041016 18 A 1.0001 1.0001 0 0 0 20.941406 18 z M 22 20.765625L29.056641 25L22 29.234375L22 20.765625 z M 3 41L6 41L6 44L3 44L3 41 z M 8 41L12 41L12 44L8 44L8 41 z M 14 41L18 41L18 44L14 44L14 41 z M 20 41L24 41L24 44L20 44L20 41 z M 26 41L30 41L30 44L26 44L26 41 z M 32 41L36 41L36 44L32 44L32 41 z M 38 41L42 41L42 44L38 44L38 41 z M 44 41L47 41L47 44L44 44L44 41 z" fill="#FFFFFF" />
</svg>