<svg xmlns="http://www.w3.org/2000/svg" viewBox="0 0 180 180"><defs><style>.cls-1{fill:#ffd700;}</style></defs><title>favico rec</title><g id="Layer_2" data-name="Layer 2"><g id="Layer_1-2" data-name="Layer 1"><rect class="cls-1" x="140.25" y="101.56" width="8.57" height="25.73"/><path class="cls-1" d="M175.61,0H4.39A4.41,4.41,0,0,0,0,4.39V175.61A4.41,4.41,0,0,0,4.39,180H175.61a4.41,4.41,0,0,0,4.39-4.39V4.39A4.41,4.41,0,0,0,175.61,0ZM122.79,93.13v8.2l-.25.23h-8.29l-.25-.23v-8.2l.25-.25h8.29Zm-59.56-66,.29-.24H94.7l.3.24V69.77l-.3.21H84.48l-.26-.21V35.58H73.86V78.43h31.46V27.16l.31-.24h10.06l.27.24V86.84l-.27.24H63.52l-.29-.24ZM80,92.88v8.23l-.25.25H71.4l-.25-.25V92.88l.25-.24h8.33Zm-31.46,60-.25.24H22.63l-.24-.24V110.29l.24-.25h8.31l.24.25v34.13h8.55V101.6H22.63l-.24-.24V93.15l.24-.24H48.27l.25.24ZM54.08,35.33l-.29.25H33.06V44H53.79l.29.25V86.84l-.29.24H22.68l-.29-.24V61.51l.29-.24H32.76l.3.24V78.4H43.43V52.7H22.68l-.29-.24V27.13l.29-.24H53.79l.29.24ZM64.53,152.87l-.24.24H56l-.24-.24V93.33l.24-.24h8.27l.24.24Zm41.69-34.41-.24.24H80v25.69h17.3v-8.5H88.8l-.22-.21v-8.27l.22-.24h17l.13.13h.12l.12,5.46v20.11l-.24.24H71.4l-.25-.24v-42.8l.25-.21h26v-8.5H88.71l-.25-.25V92.88l.25-.24H106l.24.24Zm51.39,34.39-.24.24H114.25l-.25-.24v-42.5l.25-.24h8.29l.25.24v34.07h26V136H131.58l-.25-.24V93.13l.25-.25h25.79l.24.25Zm0-117.52-.29.25H136.57V44h20.75l.29.25v8.2l-.29.24H136.57V78.4h10.37V61.51l.3-.24h10.08l.29.24V86.84l-.29.24H126.21l-.29-.24V27.13l.29-.24h31.11l.29.24Z"/></g></g></svg>
