<svg xmlns="http://www.w3.org/2000/svg" viewBox="0 0 180 180"><defs><style>.cls-1{fill:#ffd700;}</style></defs><title>favico cir</title><g id="Layer_2" data-name="Layer 2"><g id="Layer_1-2" data-name="Layer 1"><rect class="cls-1" x="132.19" y="99.71" width="7.2" height="21.61"/><path class="cls-1" d="M90,0a90,90,0,1,0,90,90A90,90,0,0,0,90,0Zm27.53,92.62v6.89l-.21.2h-7l-.21-.2V92.62l.21-.2h7Zm-50-55.38.24-.2H94l.25.2V73l-.25.17H85.37L85.15,73V44.31h-8.7v36h26.42v-43l.25-.2h8.45l.22.2V87.35l-.22.2H67.77l-.24-.2Zm14,55.18v6.91l-.2.2h-7l-.21-.2V92.42l.21-.2h7ZM55.17,142.79,55,143H33.44l-.2-.2V107l.2-.2h7l.21.2v28.66h7.17V99.74H33.44l-.2-.21V92.65l.2-.21H55l.21.21ZM59.85,44.1l-.25.21H42.19v7.08H59.6l.25.2V87.35l-.25.2H33.48l-.24-.2V66.08l.24-.2h8.46l.25.2V80.26H50.9V58.69H33.48l-.24-.21V37.21l.24-.2H59.6l.25.2Zm8.77,98.69-.2.2h-7l-.2-.2v-50l.2-.2h7l.2.2Zm35-28.9-.21.21H81.58v21.57H96.11v-7.14H89l-.18-.18v-6.94l.18-.2h14.32l.1.1h.11l.1,4.59v16.89l-.21.2h-29l-.21-.2V106.85l.21-.17H96.22V99.53H88.91l-.21-.2V92.42l.21-.2h14.5l.21.2Zm43.14,28.88-.2.2h-36.2l-.21-.2V107.09l.21-.2h7l.21.2v28.6h21.85V128.6H124.91l-.21-.2V92.62l.21-.2h21.65l.2.2Zm0-98.67-.24.21H129.1v7.08h17.42l.24.2v6.89l-.24.21H129.1V80.26h8.71V66.08l.25-.2h8.46l.24.2V87.35l-.24.2H120.4l-.25-.2V37.21l.25-.2h26.12l.24.2Z"/></g></g></svg>