<svg xmlns="http://www.w3.org/2000/svg" viewBox="0 0 162 151.23"><defs><style>.cls-1{fill:#ffffff;}</style></defs><title>ali fakhar</title><g id="Layer_2" data-name="Layer 2"><g id="Layer_1-2" data-name="Layer 1"><polygon class="cls-1" points="0.35 0 0 0.29 0 30.64 0.35 30.93 25.2 30.93 25.2 61.72 12.78 61.72 12.78 41.48 12.42 41.19 0.35 41.19 0 41.48 0 71.83 0.35 72.12 37.62 72.12 37.97 71.83 37.97 20.81 37.62 20.52 12.78 20.52 12.78 10.41 37.62 10.41 37.97 10.12 37.97 0.29 37.62 0 0.35 0"/><polygon class="cls-1" points="111.78 72.12 112.1 71.83 112.1 0.33 111.78 0.04 99.72 0.04 99.36 0.33 99.36 61.75 61.66 61.75 61.66 10.41 74.08 10.41 74.08 51.38 74.39 51.63 86.63 51.63 86.99 51.38 86.99 0.33 86.63 0.04 49.28 0.04 48.93 0.33 48.93 71.83 49.28 72.12 111.78 72.12"/><polygon class="cls-1" points="161.65 10.41 162 10.12 162 0.29 161.65 0 124.38 0 124.03 0.29 124.03 71.83 124.38 72.12 161.65 72.12 162 71.83 162 41.48 161.65 41.19 149.58 41.19 149.22 41.48 149.22 61.72 136.8 61.72 136.8 30.93 161.65 30.93 162 30.64 162 20.81 161.65 20.52 136.8 20.52 136.8 10.41 161.65 10.41"/><polygon class="cls-1" points="0.29 79.1 0 79.39 0 89.22 0.29 89.51 20.77 89.51 20.77 140.82 10.53 140.82 10.53 99.92 10.24 99.63 0.29 99.63 0 99.92 0 150.94 0.29 151.23 31 151.23 31.3 150.94 31.3 79.39 31 79.1 0.29 79.1"/><polygon class="cls-1" points="40.29 79.32 40 79.61 40 150.94 40.29 151.23 50.2 151.23 50.49 150.94 50.49 79.61 50.2 79.32 40.29 79.32"/><polygon class="cls-1" points="58.42 79.07 58.42 88.93 58.72 89.22 68.7 89.22 68.99 88.93 68.99 79.07 68.7 78.78 58.72 78.78 58.42 79.07"/><polygon class="cls-1" points="79.45 78.78 79.15 79.07 79.15 88.93 79.45 89.22 89.87 89.22 89.87 99.41 58.72 99.41 58.42 99.66 58.42 150.94 58.72 151.23 100.14 151.23 100.43 150.94 100.43 126.84 100.29 120.3 100.14 120.3 99.99 120.15 79.56 120.15 79.3 120.44 79.3 130.34 79.56 130.59 89.72 130.59 89.72 140.78 68.99 140.78 68.99 110 100.14 110 100.43 109.71 100.43 79.07 100.14 78.78 79.45 78.78"/><polygon class="cls-1" points="109.75 79.36 109.75 89.19 110.05 89.47 119.99 89.47 120.28 89.19 120.28 79.36 119.99 79.07 110.05 79.07 109.75 79.36"/><path class="cls-1" d="M130.81,79.07l-.29.29v51.05l.29.29h20.66v10.12H120.28V100l-.29-.29h-9.94l-.3.29v50.91l.3.29h51.66l.29-.29V79.36l-.29-.29Zm20.66,41.23H141.2V89.47h10.27Z"/></g></g></svg>